<svg id="Layer_1" data-name="Layer 1" xmlns="http://www.w3.org/2000/svg" viewBox="0 0 1012.12 1012.31"><defs><style>.cls-1{fill:#fff;}</style></defs><title>logo</title><path class="cls-1" d="M1017.5,511c1.2,280.4-228.8,506.8-506.8,506.2C231.1,1016.7,3.5,787.5,5.4,507.6,7.2,229.7,235.4,3,515,4.9,792,6.6,1018.7,232.7,1017.5,511Zm-496-331.3v0.4c-17.2,0-34.2-.3-51.4,0-13,.3-26,0.5-38.8,1.6-16.9,1.5-33.8,3.5-50.7,5.8a557.71,557.71,0,0,0-58.8,10.8c-21.1,5.1-41.5,11.9-61,21.6-18.7,9.5-32.6,23.3-41.3,42.6-15.3,34.5-24.6,70.8-30.7,108-2.2,13.3-3.5,26.7-4.9,39.9a562,562,0,0,0-3.8,60.7c-0.3,16.5.1,33.1,0.3,49.6,0,10.8-.1,21.6.1,32.5,0.4,12.9.8,25.7,1.8,38.6,1.4,18.7,3.7,37.2,6.5,55.7,2.8,18.8,6.2,37.6,10.8,56a289.08,289.08,0,0,0,19.5,55.1c8.7,18,21.5,32.1,39.1,41.8a211.1,211.1,0,0,0,46.5,18.9,472.41,472.41,0,0,0,52.8,11.4c16.5,2.6,33,4.7,49.5,6.6,13.4,1.5,26.9,2.3,40.5,3.1,16.8,1.1,33.6,2,50.3,2.4,13.1,0.3,26.1-.4,39.2-0.5,32.3-.4,64.7-2.3,96.7-6.8,21.1-2.8,42.1-6.2,62.9-11.1a338,338,0,0,0,56.5-18.1c24.6-10.7,42.5-28,53.3-52.6A336.82,336.82,0,0,0,824.8,700a419.54,419.54,0,0,0,10.1-55.5c1.8-15.7,3.4-31.4,4.7-47.1,0.9-10.6,1.6-21.1,2.2-31.7,0.8-16,1.8-31.9,1.8-48,0-21.4-.8-42.9-1.2-64.3a275.33,275.33,0,0,0-2.3-30c-1.9-15.2-3.9-30.4-5.8-45.6-2.2-16.6-4.5-33.3-8.1-49.6a308.46,308.46,0,0,0-22.3-65.7c-6.5-13.4-15.4-24.9-27.3-33.8a122.75,122.75,0,0,0-21-12.3c-16.5-8.1-33.8-13.4-51.7-17.9-37.3-9.3-75.1-15.3-113.5-17-22.9-.9-45.9-1.2-68.9-1.8h0Z" transform="translate(-5.39 -4.89)"/></svg>